<svg xmlns="http://www.w3.org/2000/svg" width="720" height="720" viewBox="0 0 720 720">
  <defs>
    <radialGradient id="bg" cx="78%" cy="8%" r="92%"><stop offset="0" stop-color="#1b4b34"/><stop offset="0.46" stop-color="#0a2117"/><stop offset="1" stop-color="#06110d"/></radialGradient>
    <style>text{font-family:"Hiragino Sans","Yu Gothic",sans-serif}.muted{fill:#92a89b}.green{fill:#80d99a}.gold{fill:#e4bf72}</style>
  </defs>
  <rect width="720" height="720" fill="url(#bg)"/><g opacity="0.1" stroke="#b9f1c7"><path d="M0 120h720M0 240h720M0 360h720M0 480h720M0 600h720"/><path d="M120 0v720M240 0v720M360 0v720M480 0v720M600 0v720"/></g>
  <rect x="35" y="35" width="650" height="650" rx="34" fill="#091b14" fill-opacity="0.84" stroke="#b2d7be" stroke-opacity="0.2"/>
  <text x="67" y="86" font-size="12" font-weight="700" letter-spacing="3" class="green">STEP 01 · RESEARCH ROUTER</text>
  <text x="67" y="143" font-size="40" font-weight="600" fill="#eaf4ed">研究シナリオを選ぶ</text>
  <text x="69" y="178" font-size="16" class="muted">今回の調査対象に一番近い入口を指定します。</text>
  <g transform="translate(67 222)">
    <rect width="586" height="296" rx="24" fill="#0d261b" stroke="#b2d7be" stroke-opacity="0.2"/>
    <text x="28" y="47" font-size="12" font-weight="700" fill="#c9d9ce">研究シナリオ</text>
    <rect x="28" y="66" width="530" height="64" rx="13" fill="#081a12" stroke="#80d99a" stroke-opacity="0.78"/>
    <text x="49" y="106" font-size="17" fill="#eaf4ed">company — 企業分析</text>
    <path d="M522 91l8 9 8-9" fill="none" stroke="#80d99a" stroke-width="2"/>
    <text x="28" y="169" font-size="13" class="muted">企業の質、競争優位、経営、資本配分を検討します。</text>
    <g transform="translate(28 204)">
      <rect width="122" height="52" rx="12" fill="#80d99a" fill-opacity="0.12" stroke="#80d99a" stroke-opacity="0.45"/>
      <text x="61" y="32" text-anchor="middle" font-size="14" class="green">企業分析</text>
      <rect x="134" width="122" height="52" rx="12" fill="#ffffff" fill-opacity="0.025" stroke="#b2d7be" stroke-opacity="0.16"/>
      <text x="195" y="32" text-anchor="middle" font-size="14" class="muted">証券分析</text>
      <rect x="268" width="122" height="52" rx="12" fill="#ffffff" fill-opacity="0.025" stroke="#b2d7be" stroke-opacity="0.16"/>
      <text x="329" y="32" text-anchor="middle" font-size="14" class="muted">行動分析</text>
      <rect x="402" width="128" height="52" rx="12" fill="#ffffff" fill-opacity="0.025" stroke="#b2d7be" stroke-opacity="0.16"/>
      <text x="466" y="32" text-anchor="middle" font-size="14" class="muted">ポートフォリオ</text>
    </g>
  </g>
  <g transform="translate(67 566)"><circle cx="18" cy="18" r="18" fill="#e4bf72" fill-opacity="0.12" stroke="#e4bf72" stroke-opacity="0.4"/><text x="18" y="24" text-anchor="middle" font-family="Georgia,serif" font-size="15" class="gold">1</text><text x="51" y="23" font-size="15" fill="#dbe8df">迷ったら、分析したい対象で選べば大丈夫です。</text></g>
  <g transform="translate(67 632)"><rect width="112" height="4" rx="2" fill="#2c4839"/><rect x="124" width="112" height="4" rx="2" fill="#80d99a"/><rect x="248" width="112" height="4" rx="2" fill="#2c4839"/><rect x="372" width="112" height="4" rx="2" fill="#2c4839"/><rect x="496" width="90" height="4" rx="2" fill="#2c4839"/></g>
</svg>
