<svg xmlns="http://www.w3.org/2000/svg" viewBox="0 0 880 470" font-family="'PingFang SC','Hiragino Sans GB','Microsoft YaHei','Noto Sans CJK SC','Source Han Sans SC',sans-serif">
<rect x="0.5" y="0.5" width="879" height="469" rx="14" fill="#fcfcfb" stroke="#e5e4e0"/>
<text x="28" y="40" font-size="20" font-weight="600" fill="#0b0b0b">同一个模型，只改一份技能文档</text>
<text x="28" y="64" font-size="13" fill="#52514e">GPT-5.5 直接对话模式，留出测试集准确率（%）。数据：SkillOpt 论文表 1</text>
<rect x="28" y="86" width="12" height="12" rx="3" fill="#898781"/>
<text x="46" y="97" font-size="13" fill="#52514e">无技能</text>
<rect x="114" y="86" width="12" height="12" rx="3" fill="#eda100"/>
<text x="132" y="97" font-size="13" fill="#52514e">TextGrad</text>
<rect x="222" y="86" width="12" height="12" rx="3" fill="#1baf7a"/>
<text x="240" y="97" font-size="13" fill="#52514e">GEPA</text>
<rect x="298" y="86" width="12" height="12" rx="3" fill="#2a78d6"/>
<text x="316" y="97" font-size="13" fill="#52514e">SkillOpt</text>
<line x1="64" y1="410.0" x2="852" y2="410.0" stroke="#e5e4e0" stroke-width="1"/>
<text x="54" y="414.0" font-size="12" fill="#898781" text-anchor="end">0</text>
<line x1="64" y1="340.0" x2="852" y2="340.0" stroke="#e5e4e0" stroke-width="1"/>
<text x="54" y="344.0" font-size="12" fill="#898781" text-anchor="end">25</text>
<line x1="64" y1="270.0" x2="852" y2="270.0" stroke="#e5e4e0" stroke-width="1"/>
<text x="54" y="274.0" font-size="12" fill="#898781" text-anchor="end">50</text>
<line x1="64" y1="200.0" x2="852" y2="200.0" stroke="#e5e4e0" stroke-width="1"/>
<text x="54" y="204.0" font-size="12" fill="#898781" text-anchor="end">75</text>
<line x1="64" y1="130.0" x2="852" y2="130.0" stroke="#e5e4e0" stroke-width="1"/>
<text x="54" y="134.0" font-size="12" fill="#898781" text-anchor="end">100</text>
<path d="M82.66666666666667,410 V196.44 Q82.66666666666667,192.44 86.66666666666667,192.44 H100.66666666666667 Q104.66666666666667,192.44 104.66666666666667,196.44 V410 Z" fill="#898781"/>
<text x="93.66666666666667" y="186.44" font-size="11" fill="#898781" text-anchor="middle">77.7</text>
<path d="M106.66666666666667,410 V186.08 Q106.66666666666667,182.08 110.66666666666667,182.08 H124.66666666666669 Q128.66666666666669,182.08 128.66666666666669,186.08 V410 Z" fill="#eda100"/>
<path d="M130.66666666666669,410 V176.56 Q130.66666666666669,172.56 134.66666666666669,172.56 H148.66666666666669 Q152.66666666666669,172.56 152.66666666666669,176.56 V410 Z" fill="#1baf7a"/>
<path d="M154.66666666666669,410 V169.56 Q154.66666666666669,165.56 158.66666666666669,165.56 H172.66666666666669 Q176.66666666666669,165.56 176.66666666666669,169.56 V410 Z" fill="#2a78d6"/>
<text x="165.66666666666669" y="159.56" font-size="12" font-weight="600" fill="#0b0b0b" text-anchor="middle">87.3</text>
<text x="129.66666666666669" y="432" font-size="12.5" fill="#52514e" text-anchor="middle">搜索问答</text>
<path d="M214.0,410 V296.96 Q214.0,292.96 218.0,292.96 H232.0 Q236.0,292.96 236.0,296.96 V410 Z" fill="#898781"/>
<text x="225.0" y="286.96" font-size="11" fill="#898781" text-anchor="middle">41.8</text>
<path d="M238.0,410 V298.92 Q238.0,294.92 242.0,294.92 H256.0 Q260.0,294.92 260.0,298.92 V410 Z" fill="#eda100"/>
<path d="M262.0,410 V207.92 Q262.0,203.92 266.0,203.92 H280.0 Q284.0,203.92 284.0,207.92 V410 Z" fill="#1baf7a"/>
<path d="M286.0,410 V188.04 Q286.0,184.04 290.0,184.04 H304.0 Q308.0,184.04 308.0,188.04 V410 Z" fill="#2a78d6"/>
<text x="297.0" y="178.04" font-size="12" font-weight="600" fill="#0b0b0b" text-anchor="middle">80.7</text>
<text x="261.0" y="432" font-size="12.5" fill="#52514e" text-anchor="middle">表格处理</text>
<path d="M345.33333333333337,410 V321.32 Q345.33333333333337,317.32 349.33333333333337,317.32 H363.33333333333337 Q367.33333333333337,317.32 367.33333333333337,321.32 V410 Z" fill="#898781"/>
<text x="356.33333333333337" y="311.32" font-size="11" fill="#898781" text-anchor="middle">33.1</text>
<path d="M369.33333333333337,410 V296.4 Q369.33333333333337,292.4 373.33333333333337,292.4 H387.33333333333337 Q391.33333333333337,292.4 391.33333333333337,296.4 V410 Z" fill="#eda100"/>
<path d="M393.33333333333337,410 V235.08 Q393.33333333333337,231.08 397.33333333333337,231.08 H411.33333333333337 Q415.33333333333337,231.08 415.33333333333337,235.08 V410 Z" fill="#1baf7a"/>
<path d="M417.33333333333337,410 V212.12 Q417.33333333333337,208.12 421.33333333333337,208.12 H435.33333333333337 Q439.33333333333337,208.12 439.33333333333337,212.12 V410 Z" fill="#2a78d6"/>
<text x="428.33333333333337" y="202.12" font-size="12" font-weight="600" fill="#0b0b0b" text-anchor="middle">72.1</text>
<text x="392.33333333333337" y="432" font-size="12.5" fill="#52514e" text-anchor="middle">办公文档问答</text>
<path d="M476.6666666666667,410 V193.36 Q476.6666666666667,189.36 480.6666666666667,189.36 H494.6666666666667 Q498.6666666666667,189.36 498.6666666666667,193.36 V410 Z" fill="#898781"/>
<text x="487.6666666666667" y="183.36" font-size="11" fill="#898781" text-anchor="middle">78.8</text>
<path d="M500.6666666666667,410 V169.84 Q500.6666666666667,165.84 504.6666666666667,165.84 H518.6666666666667 Q522.6666666666667,165.84 522.6666666666667,169.84 V410 Z" fill="#eda100"/>
<path d="M524.6666666666667,410 V164.52 Q524.6666666666667,160.52 528.6666666666667,160.52 H542.6666666666667 Q546.6666666666667,160.52 546.6666666666667,164.52 V410 Z" fill="#1baf7a"/>
<path d="M548.6666666666667,410 V158.64 Q548.6666666666667,154.64 552.6666666666667,154.64 H566.6666666666667 Q570.6666666666667,154.64 570.6666666666667,158.64 V410 Z" fill="#2a78d6"/>
<text x="559.6666666666667" y="148.64" font-size="12" font-weight="600" fill="#0b0b0b" text-anchor="middle">91.2</text>
<text x="523.6666666666666" y="432" font-size="12.5" fill="#52514e" text-anchor="middle">文档图像问答</text>
<path d="M608.0,410 V308.72 Q608.0,304.72 612.0,304.72 H626.0 Q630.0,304.72 630.0,308.72 V410 Z" fill="#898781"/>
<text x="619.0" y="298.72" font-size="11" fill="#898781" text-anchor="middle">37.6</text>
<path d="M632.0,410 V276.24 Q632.0,272.24 636.0,272.24 H650.0 Q654.0,272.24 654.0,276.24 V410 Z" fill="#eda100"/>
<path d="M656.0,410 V293.04 Q656.0,289.04 660.0,289.04 H674.0 Q678.0,289.04 678.0,293.04 V410 Z" fill="#1baf7a"/>
<path d="M680.0,410 V226.68 Q680.0,222.68 684.0,222.68 H698.0 Q702.0,222.68 702.0,226.68 V410 Z" fill="#2a78d6"/>
<text x="691.0" y="216.68" font-size="12" font-weight="600" fill="#0b0b0b" text-anchor="middle">66.9</text>
<text x="655.0" y="432" font-size="12.5" fill="#52514e" text-anchor="middle">数学</text>
<path d="M739.3333333333334,410 V179.92 Q739.3333333333334,175.92 743.3333333333334,175.92 H757.3333333333334 Q761.3333333333334,175.92 761.3333333333334,179.92 V410 Z" fill="#898781"/>
<text x="750.3333333333334" y="169.92" font-size="11" fill="#898781" text-anchor="middle">83.6</text>
<path d="M763.3333333333334,410 V182.16 Q763.3333333333334,178.16 767.3333333333334,178.16 H781.3333333333334 Q785.3333333333334,178.16 785.3333333333334,182.16 V410 Z" fill="#eda100"/>
<path d="M787.3333333333334,410 V173.76 Q787.3333333333334,169.76 791.3333333333334,169.76 H805.3333333333334 Q809.3333333333334,169.76 809.3333333333334,173.76 V410 Z" fill="#1baf7a"/>
<path d="M811.3333333333334,410 V146.60000000000002 Q811.3333333333334,142.60000000000002 815.3333333333334,142.60000000000002 H829.3333333333334 Q833.3333333333334,142.60000000000002 833.3333333333334,146.60000000000002 V410 Z" fill="#2a78d6"/>
<text x="822.3333333333334" y="136.60000000000002" font-size="12" font-weight="600" fill="#0b0b0b" text-anchor="middle">95.5</text>
<text x="786.3333333333334" y="432" font-size="12.5" fill="#52514e" text-anchor="middle">家居环境</text>
<text x="28" y="456" font-size="12" fill="#898781">只标注了无技能与 SkillOpt 两组数值，其余见正文表格。TextGrad 在两个基准上低于无技能基线。</text>
</svg>